<?xml version="1.0" encoding="utf-8"?>
<!-- Generator: Adobe Illustrator 22.0.1, SVG Export Plug-In . SVG Version: 6.00 Build 0)  -->
<svg version="1.1" id="Layer_1" xmlns="http://www.w3.org/2000/svg" xmlns:xlink="http://www.w3.org/1999/xlink" x="0px" y="0px"
	 viewBox="0 0 140 140" style="enable-background:new 0 0 140 140;" xml:space="preserve">
<style type="text/css">
	.st0{fill:#52A6A6;}
	.st1{fill:#FFFFFF;}
</style>
<circle class="st0" cx="70" cy="70" r="70"/>
<g>
</g>
<g>
</g>
<g>
</g>
<g>
</g>
<g>
</g>
<g>
</g>
<g>
</g>
<g>
</g>
<g>
</g>
<g>
</g>
<g>
</g>
<g>
</g>
<g>
</g>
<g>
</g>
<g>
</g>
<g>
	<g>
		<g>
			<g>
				<path class="st1" d="M33.7,28C33.7,28,33.7,28,33.7,28c-1,0-1.9,0.4-2.6,1.1c-0.7,0.7-1.1,1.7-1.1,2.7v56.2
					c0,2.1,1.7,3.7,3.8,3.7c8.7,0,23.3,1.8,33.4,12.4V45.3c0-0.7-0.2-1.4-0.5-1.9C58.3,30,42.4,28,33.7,28z"/>
				<path class="st1" d="M110.1,87.9V31.7c0-1-0.4-2-1.1-2.7c-0.7-0.7-1.6-1.1-2.6-1.1c0,0,0,0,0,0c-8.7,0-24.6,2-32.9,15.4
					c-0.3,0.5-0.5,1.2-0.5,1.9v58.8C83,93.5,97.6,91.7,106.3,91.7C108.4,91.7,110.1,90,110.1,87.9z"/>
				<path class="st1" d="M118.6,41h-2.7v47c0,5.3-4.3,9.6-9.6,9.6c-7.4,0-19.6,1.5-28.2,9.6c14.9-3.7,30.7-1.3,39.7,0.8
					c1.1,0.3,2.3,0,3.2-0.7c0.9-0.7,1.4-1.8,1.4-2.9V44.7C122.4,42.6,120.7,41,118.6,41z"/>
				<path class="st1" d="M24.1,87.9V41h-2.7c-2.1,0-3.7,1.7-3.7,3.7v59.5c0,1.1,0.5,2.2,1.4,2.9c0.9,0.7,2.1,1,3.2,0.7
					c9-2,24.7-4.4,39.7-0.8c-8.6-8.2-20.8-9.6-28.2-9.6C28.4,97.5,24.1,93.2,24.1,87.9z"/>
			</g>
		</g>
	</g>
	<g>
	</g>
	<g>
	</g>
	<g>
	</g>
	<g>
	</g>
	<g>
	</g>
	<g>
	</g>
	<g>
	</g>
	<g>
	</g>
	<g>
	</g>
	<g>
	</g>
	<g>
	</g>
	<g>
	</g>
	<g>
	</g>
	<g>
	</g>
	<g>
	</g>
</g>
</svg>
