<?xml version="1.0" encoding="utf-8"?>
<!-- Generator: Adobe Illustrator 22.0.1, SVG Export Plug-In . SVG Version: 6.00 Build 0)  -->
<svg version="1.1" id="Layer_1" xmlns="http://www.w3.org/2000/svg" xmlns:xlink="http://www.w3.org/1999/xlink" x="0px" y="0px"
	 viewBox="0 0 140 140" style="enable-background:new 0 0 140 140;" xml:space="preserve">
<style type="text/css">
	.st0{fill:#52A6A6;}
	.st1{fill:#FFFFFF;stroke:#FFFFFF;stroke-miterlimit:10;}
</style>
<circle class="st0" cx="70" cy="70" r="70"/>
<g>
</g>
<g>
</g>
<g>
</g>
<g>
</g>
<g>
</g>
<g>
</g>
<g>
</g>
<g>
</g>
<g>
</g>
<g>
</g>
<g>
</g>
<g>
</g>
<g>
</g>
<g>
</g>
<g>
</g>
<g>
	<g>
		<path class="st1" d="M73.3,57.6c0,0.6,0.5,1.1,1.1,1.1h29c0.6,0,1.1-0.5,1.1-1.1v-18c0-0.6-0.5-1.1-1.1-1.1h-29
			c-0.6,0-1.1,0.5-1.1,1.1V57.6z M75.5,40.7h26.7v15.8H75.5V40.7z"/>
		<path class="st1" d="M96.6,43.4c-0.4-0.4-1.1-0.4-1.6,0l-8,8l-4.6-4.6c-0.4-0.4-1.1-0.4-1.6,0l-3.4,3.4c-0.4,0.4-0.4,1.1,0,1.6
			c0.4,0.4,1.1,0.4,1.6,0l2.7-2.7l4.6,4.6c0.2,0.2,0.5,0.3,0.8,0.3s0.6-0.1,0.8-0.3l8-8l2.9,2.9c0.4,0.4,1.1,0.4,1.6,0
			c0.4-0.4,0.4-1.1,0-1.6L96.6,43.4z"/>
		<path class="st1" d="M89.8,77.1c-6.1,0-11,4.9-11,11s4.9,11,11,11s11-4.9,11-11S95.9,77.1,89.8,77.1z M98.5,87.1h-8.3l-5.8-5.8
			c1.5-1.2,3.4-1.8,5.4-1.8C94.3,79.4,98,82.7,98.5,87.1z M81,88.2c0-2,0.7-3.9,1.8-5.4l5.7,5.7l-2.9,7.4C82.8,94.4,81,91.5,81,88.2
			z M89.8,97c-0.7,0-1.5-0.1-2.2-0.3l2.9-7.4h8C98,93.6,94.3,97,89.8,97z"/>
		<path class="st1" d="M51.4,77.6H60c0.4,0,0.8-0.2,1-0.6s0.2-0.8,0-1.1l-8-13.9c-0.2-0.3-0.6-0.6-1-0.6s-0.8,0.2-1,0.6l-3.4,5.8
			l-1.2-2.1c-0.2-0.3-0.6-0.6-1-0.6s-0.8,0.2-1,0.6l-5.9,10.1c-0.2,0.3-0.2,0.8,0,1.1c0.2,0.3,0.6,0.6,1,0.6L51.4,77.6
			C51.4,77.6,51.4,77.6,51.4,77.6z M52,64.9l6.1,10.5H45.9L52,64.9z M45.5,68.6l0.9,1.5l-3.1,5.3h-1.7L45.5,68.6z"/>
		<path class="st1" d="M46,48.2h20.3c0.6,0,1.1-0.5,1.1-1.1s-0.5-1.1-1.1-1.1H46c-0.6,0-1.1,0.5-1.1,1.1S45.4,48.2,46,48.2z"/>
		<path class="st1" d="M37.9,48.2h4.6c0.6,0,1.1-0.5,1.1-1.1s-0.5-1.1-1.1-1.1h-4.6c-0.6,0-1.1,0.5-1.1,1.1S37.3,48.2,37.9,48.2z"/>
		<path class="st1" d="M67.4,51.3c0-0.6-0.5-1.1-1.1-1.1H37.9c-0.6,0-1.1,0.5-1.1,1.1c0,0.6,0.5,1.1,1.1,1.1h28.4
			C66.9,52.5,67.4,52,67.4,51.3z"/>
		<path class="st1" d="M80.5,66.3c-0.6,0-1.1,0.5-1.1,1.1c0,0.6,0.5,1.1,1.1,1.1h20.3c0.6,0,1.1-0.5,1.1-1.1c0-0.6-0.5-1.1-1.1-1.1
			H80.5z"/>
		<path class="st1" d="M72.4,68.5h4.6c0.6,0,1.1-0.5,1.1-1.1c0-0.6-0.5-1.1-1.1-1.1h-4.6c-0.6,0-1.1,0.5-1.1,1.1
			C71.3,68,71.8,68.5,72.4,68.5z"/>
		<path class="st1" d="M72.4,72.8h28.4c0.6,0,1.1-0.5,1.1-1.1c0-0.6-0.5-1.1-1.1-1.1H72.4c-0.6,0-1.1,0.5-1.1,1.1
			C71.3,72.3,71.8,72.8,72.4,72.8z"/>
		<path class="st1" d="M69.6,84.9H49.3c-0.6,0-1.1,0.5-1.1,1.1c0,0.6,0.5,1.1,1.1,1.1h20.3c0.6,0,1.1-0.5,1.1-1.1
			C70.7,85.4,70.2,84.9,69.6,84.9z"/>
		<path class="st1" d="M41.2,84.9c-0.6,0-1.1,0.5-1.1,1.1c0,0.6,0.5,1.1,1.1,1.1h4.6c0.6,0,1.1-0.5,1.1-1.1c0-0.6-0.5-1.1-1.1-1.1
			H41.2z"/>
		<path class="st1" d="M69.6,89.2H41.2c-0.6,0-1.1,0.5-1.1,1.1c0,0.6,0.5,1.1,1.1,1.1h28.4c0.6,0,1.1-0.5,1.1-1.1
			C70.7,89.7,70.2,89.2,69.6,89.2z"/>
		<path class="st1" d="M109.3,24H44.9c-0.3,0-0.6,0.1-0.8,0.3L31.9,36.5c-0.2,0.2-0.3,0.5-0.3,0.8v75.6c0,0.6,0.5,1.1,1.1,1.1h64.3
			c0.3,0,0.6-0.1,0.8-0.3l12.2-12.1c0.2-0.2,0.3-0.5,0.3-0.8V25.1C110.4,24.5,109.9,24,109.3,24z M43.8,27.8v8.3h-8.3L43.8,27.8z
			 M33.8,38.4h11c0.6,0,1.1-0.5,1.1-1.1v-11h62.2v73.4h-11c-0.6,0-1.1,0.5-1.1,1.1v11H33.8V38.4z M106.6,101.9l-8.3,8.3v-8.3H106.6z
			"/>
		<path class="st1" d="M66.5,106.8H58c-0.6,0-1.1,0.5-1.1,1.1c0,0.6,0.5,1.1,1.1,1.1h8.5c0.6,0,1.1-0.5,1.1-1.1
			C67.7,107.3,67.2,106.8,66.5,106.8z"/>
		<path class="st1" d="M84,106.8h-8.5c-0.6,0-1.1,0.5-1.1,1.1c0,0.6,0.5,1.1,1.1,1.1H84c0.6,0,1.1-0.5,1.1-1.1
			C85.1,107.3,84.6,106.8,84,106.8z"/>
		<path class="st1" d="M69.5,105.2c-0.6,0-1.1,0.5-1.1,1.1v2.6c0,0.6,0.5,1.1,1.1,1.1s1.1-0.5,1.1-1.1v-2.6
			C70.6,105.7,70.1,105.2,69.5,105.2z"/>
		<path class="st1" d="M72.5,105.2c-0.6,0-1.1,0.5-1.1,1.1v2.6c0,0.6,0.5,1.1,1.1,1.1s1.1-0.5,1.1-1.1v-2.6
			C73.6,105.7,73.1,105.2,72.5,105.2z"/>
		<path class="st1" d="M58,31.8h8.5c0.6,0,1.1-0.5,1.1-1.1c0-0.6-0.5-1.1-1.1-1.1H58c-0.6,0-1.1,0.5-1.1,1.1
			C56.9,31.3,57.4,31.8,58,31.8z"/>
		<path class="st1" d="M75.5,31.8H84c0.6,0,1.1-0.5,1.1-1.1c0-0.6-0.5-1.1-1.1-1.1h-8.5c-0.6,0-1.1,0.5-1.1,1.1
			C74.3,31.3,74.8,31.8,75.5,31.8z"/>
		<path class="st1" d="M69.5,32.8c0.6,0,1.1-0.5,1.1-1.1v-2.6c0-0.6-0.5-1.1-1.1-1.1s-1.1,0.5-1.1,1.1v2.6
			C68.4,32.3,68.9,32.8,69.5,32.8z"/>
		<path class="st1" d="M72.5,32.8c0.6,0,1.1-0.5,1.1-1.1v-2.6c0-0.6-0.5-1.1-1.1-1.1s-1.1,0.5-1.1,1.1v2.6
			C71.4,32.3,71.9,32.8,72.5,32.8z"/>
	</g>
	<g>
	</g>
	<g>
	</g>
	<g>
	</g>
	<g>
	</g>
	<g>
	</g>
	<g>
	</g>
	<g>
	</g>
	<g>
	</g>
	<g>
	</g>
	<g>
	</g>
	<g>
	</g>
	<g>
	</g>
	<g>
	</g>
	<g>
	</g>
	<g>
	</g>
</g>
</svg>
