<?xml version="1.0" encoding="utf-8"?>
<!-- Generator: Adobe Illustrator 22.0.1, SVG Export Plug-In . SVG Version: 6.00 Build 0)  -->
<svg version="1.1" id="Layer_1" xmlns="http://www.w3.org/2000/svg" xmlns:xlink="http://www.w3.org/1999/xlink" x="0px" y="0px"
	 viewBox="0 0 140 140" style="enable-background:new 0 0 140 140;" xml:space="preserve">
<style type="text/css">
	.st0{fill:#52A6A6;}
	.st1{fill:#FFFFFF;stroke:#FFFFFF;stroke-width:2;stroke-miterlimit:10;}
</style>
<circle class="st0" cx="70" cy="70" r="70"/>
<g>
</g>
<g>
</g>
<g>
</g>
<g>
</g>
<g>
</g>
<g>
</g>
<g>
</g>
<g>
</g>
<g>
</g>
<g>
</g>
<g>
</g>
<g>
</g>
<g>
</g>
<g>
</g>
<g>
</g>
<g>
	<g>
		<path class="st1" d="M95.3,68.3c-2.5,0-4.7,1.2-6,3.1c-1.4-1.9-3.5-3.1-6-3.1s-4.7,1.2-6,3.1c-1.4-1.9-3.5-3.1-6-3.1
			c-1.7,0-3.3,0.6-4.6,1.6V49.6c0-4.1-3.3-7.4-7.4-7.4s-7.4,3.3-7.4,7.4V102c0,7.1,5.8,12.9,12.9,12.9h25.2
			c7.1,0,12.9-5.8,12.9-12.9V75.7C102.8,71.6,99.4,68.3,95.3,68.3z M99.9,102c0,5.5-4.5,10-10,10H64.7c-5.5,0-10-4.5-10-10V49.6
			c0-2.5,2.1-4.6,4.6-4.6c2.5,0,4.6,2.1,4.6,4.6v29c0,0.8,0.6,1.4,1.4,1.4c0.8,0,1.4-0.6,1.4-1.4v-2.9c0-2.5,2.1-4.6,4.6-4.6
			s4.6,2.1,4.6,4.6v2.9c0,0.8,0.6,1.4,1.4,1.4c0.8,0,1.4-0.6,1.4-1.4v-2.9c0-2.5,2.1-4.6,4.6-4.6s4.6,2.1,4.6,4.6v2.9
			c0,0.8,0.6,1.4,1.4,1.4c0.8,0,1.4-0.6,1.4-1.4v-2.9c0-2.5,2.1-4.6,4.6-4.6s4.6,2.1,4.6,4.6L99.9,102L99.9,102z"/>
		<path class="st1" d="M72.4,49.6c0,2.8-0.9,5.6-2.6,7.8c-0.5,0.6-0.3,1.5,0.3,2c0.6,0.5,1.5,0.3,2-0.3c2.1-2.8,3.1-6.1,3.1-9.5
			c0-8.8-7.2-16-16-16s-16,7.2-16,16c0,3.5,1.1,6.8,3.1,9.5c0.3,0.4,0.7,0.6,1.2,0.6c0.3,0,0.6-0.1,0.9-0.3c0.6-0.5,0.8-1.4,0.3-2
			c-1.7-2.3-2.6-5-2.6-7.8c0-7.3,5.9-13.2,13.2-13.2S72.4,42.3,72.4,49.6z"/>
		<path class="st1" d="M48.2,68.3c-6.6-3.9-10.7-11.1-10.7-18.8c0-4.9,1.6-9.5,4.6-13.4c0.5-0.6,0.4-1.5-0.2-2
			c-0.6-0.5-1.5-0.4-2,0.2c-3.4,4.4-5.2,9.6-5.2,15.1c0,4.4,1.2,8.7,3.4,12.4c2.1,3.6,5.2,6.7,8.8,8.8c0.2,0.1,0.5,0.2,0.7,0.2
			c0.5,0,1-0.3,1.2-0.7C49.2,69.6,48.9,68.7,48.2,68.3z"/>
		<path class="st1" d="M45.9,32.4c3.9-3,8.5-4.6,13.4-4.6c12,0,21.8,9.8,21.8,21.8c0,5.4-2,10.6-5.7,14.6c-0.5,0.6-0.5,1.5,0.1,2
			c0.3,0.2,0.6,0.4,1,0.4c0.4,0,0.8-0.2,1.1-0.5c4.1-4.5,6.4-10.4,6.4-16.6c0-13.6-11-24.6-24.6-24.6c-5.5,0-10.8,1.8-15.1,5.2
			c-0.6,0.5-0.7,1.4-0.2,2C44.4,32.8,45.3,32.9,45.9,32.4z"/>
	</g>
	<g>
	</g>
	<g>
	</g>
	<g>
	</g>
	<g>
	</g>
	<g>
	</g>
	<g>
	</g>
	<g>
	</g>
	<g>
	</g>
	<g>
	</g>
	<g>
	</g>
	<g>
	</g>
	<g>
	</g>
	<g>
	</g>
	<g>
	</g>
	<g>
	</g>
</g>
</svg>
