<?xml version="1.0" encoding="utf-8"?>
<!-- Generator: Adobe Illustrator 22.0.1, SVG Export Plug-In . SVG Version: 6.00 Build 0)  -->
<svg version="1.1" id="Layer_1" xmlns="http://www.w3.org/2000/svg" xmlns:xlink="http://www.w3.org/1999/xlink" x="0px" y="0px"
	 viewBox="0 0 140 140" style="enable-background:new 0 0 140 140;" xml:space="preserve">
<style type="text/css">
	.st0{fill:#EE333C;}
	.st1{fill:#FFFFFF;}
	.st2{fill:#801517;}
</style>
<circle class="st0" cx="70" cy="70" r="70"/>
<g>
	<path class="st1" d="M95.2,58.1c0,12.5-12.5,24.8-12.5,37.5h-25c0-12.3-12.5-25-12.5-37.5c0-13.8,11.2-25,25-25
		C84,33.1,95.2,44.2,95.2,58.1z M79.6,108.1H60.8c-1.7,0-3.1,1.4-3.1,3.1s1.4,3.1,3.1,3.1h0.6c1.3,3.6,4.7,6.2,8.8,6.2
		s7.5-2.6,8.8-6.2h0.6c1.7,0,3.1-1.4,3.1-3.1S81.3,108.1,79.6,108.1z M79.6,98.7H60.8c-1.7,0-3.1,1.4-3.1,3.1s1.4,3.1,3.1,3.1h18.8
		c1.7,0,3.1-1.4,3.1-3.1S81.3,98.7,79.6,98.7z M36.2,42l5.6,3.2c0.9-1.9,1.9-3.7,3.1-5.4l-5.6-3.3L36.2,42z M73.3,27.1v-6.6h-6.2
		v6.6c1-0.1,2.1-0.3,3.1-0.3S72.3,27,73.3,27.1z M57.4,29.6L54.2,24l-5.4,3.1l3.3,5.6C53.7,31.5,55.5,30.5,57.4,29.6z M104.2,42
		l-3.1-5.4l-5.6,3.3c1.2,1.7,2.3,3.5,3.1,5.4L104.2,42z M91.6,27.1L86.2,24L83,29.6c1.9,0.9,3.7,1.9,5.4,3.1L91.6,27.1z M38.9,58.1
		c0-1.1,0.2-2.1,0.3-3.1h-6.6v6.2h6.6C39.2,60.1,38.9,59.1,38.9,58.1z M101.1,54.9c0.1,1,0.3,2.1,0.3,3.1c0,1.1-0.2,2.1-0.3,3.1h6.6
		v-6.2H101.1z M96,76.6l5.1,3l3.1-5.4l-5.7-3.3C97.8,72.8,96.9,74.7,96,76.6z M36.2,74.1l3.1,5.4l5.1-2.9c-0.9-1.9-1.8-3.8-2.5-5.7
		L36.2,74.1z"/>
</g>
<g>
</g>
<g>
</g>
<g>
</g>
<g>
</g>
<g>
</g>
<g>
</g>
<g>
</g>
<g>
</g>
<g>
</g>
<g>
</g>
<g>
</g>
<g>
</g>
<g>
</g>
<g>
</g>
<g>
</g>
<g>
	<g>
		<g>
			<polygon class="st2" points="82.8,46.2 66,63 59.6,56.6 53,63.2 59.4,69.6 66,76.2 72.6,69.6 89.4,52.8 			"/>
		</g>
	</g>
	<g>
	</g>
	<g>
	</g>
	<g>
	</g>
	<g>
	</g>
	<g>
	</g>
	<g>
	</g>
	<g>
	</g>
	<g>
	</g>
	<g>
	</g>
	<g>
	</g>
	<g>
	</g>
	<g>
	</g>
	<g>
	</g>
	<g>
	</g>
	<g>
	</g>
</g>
</svg>
