<?xml version="1.0" encoding="utf-8"?>
<!-- Generator: Adobe Illustrator 22.0.1, SVG Export Plug-In . SVG Version: 6.00 Build 0)  -->
<svg version="1.1" id="Layer_1" xmlns="http://www.w3.org/2000/svg" xmlns:xlink="http://www.w3.org/1999/xlink" x="0px" y="0px"
	 viewBox="0 0 140 140" style="enable-background:new 0 0 140 140;" xml:space="preserve">
<style type="text/css">
	.st0{fill:#52A6A6;}
	.st1{fill:#FFFFFF;}
</style>
<circle class="st0" cx="70" cy="70" r="70"/>
<g>
</g>
<g>
</g>
<g>
</g>
<g>
</g>
<g>
</g>
<g>
</g>
<g>
</g>
<g>
</g>
<g>
</g>
<g>
</g>
<g>
</g>
<g>
</g>
<g>
</g>
<g>
</g>
<g>
</g>
<g>
	<g>
		<path class="st1" d="M103.3,53.7c-0.7-1.7-1.5-3-2.5-4L84.5,33.5c-1-1-2.3-1.8-4-2.5c-1.7-0.7-3.2-1-4.6-1H42.7
			c-1.4,0-2.6,0.5-3.5,1.5c-1,1-1.5,2.2-1.5,3.5v70c0,1.4,0.5,2.6,1.5,3.5c1,1,2.2,1.5,3.5,1.5h56.7c1.4,0,2.6-0.5,3.5-1.5
			c1-1,1.5-2.2,1.5-3.5V58.3C104.3,56.9,104,55.4,103.3,53.7z M77.7,37.1c1,0.3,1.7,0.7,2.1,1.1l16.3,16.3c0.4,0.4,0.8,1.1,1.1,2.1
			H77.7V37.1z M97.7,103.3H44.3V36.7H71v21.7c0,1.4,0.5,2.6,1.5,3.5c1,1,2.2,1.5,3.5,1.5h21.7V103.3z"/>
	</g>
	<g>
	</g>
	<g>
	</g>
	<g>
	</g>
	<g>
	</g>
	<g>
	</g>
	<g>
	</g>
	<g>
	</g>
	<g>
	</g>
	<g>
	</g>
	<g>
	</g>
	<g>
	</g>
	<g>
	</g>
	<g>
	</g>
	<g>
	</g>
	<g>
	</g>
</g>
</svg>
