<?xml version="1.0" encoding="utf-8"?>
<!-- Generator: Adobe Illustrator 22.0.1, SVG Export Plug-In . SVG Version: 6.00 Build 0)  -->
<svg version="1.1" id="Layer_1" xmlns="http://www.w3.org/2000/svg" xmlns:xlink="http://www.w3.org/1999/xlink" x="0px" y="0px"
	 viewBox="0 0 140 140" style="enable-background:new 0 0 140 140;" xml:space="preserve">
<style type="text/css">
	.st0{fill:#52A6A6;}
	.st1{fill:#FFFFFF;}
</style>
<circle class="st0" cx="70" cy="70" r="70"/>
<g>
</g>
<g>
</g>
<g>
</g>
<g>
</g>
<g>
</g>
<g>
</g>
<g>
</g>
<g>
</g>
<g>
</g>
<g>
</g>
<g>
</g>
<g>
</g>
<g>
</g>
<g>
</g>
<g>
</g>
<g>
	<g>
		<path class="st1" d="M61.6,37.2L44.5,50H28.9c-2.6,0-4.7,2.1-4.7,4.7v32.6c0,2.6,2.1,4.7,4.7,4.7h15.6l17.1,12.8
			c3.1,2.3,7.5,0.2,7.5-3.7V40.9C69,37,64.6,34.8,61.6,37.2z"/>
		<path class="st1" d="M84.5,44.8c-2.1-2.1-5.6-2.1-7.7,0c-2.1,2.1-2.1,5.6,0,7.7c10.1,10.1,10.1,26.6,0,36.8
			c-2.1,2.1-2.1,5.6,0,7.7c1.1,1.1,2.5,1.6,3.8,1.6c1.3,0,2.8-0.5,3.8-1.6C98.9,82.7,98.9,59.3,84.5,44.8z"/>
		<path class="st1" d="M90.6,32.6c-2.1,2.1-2.1,5.6,0,7.7c8.2,8.2,12.7,19,12.7,30.7s-4.5,22.5-12.7,30.7c-2.1,2.1-2.1,5.6,0,7.7
			c1.1,1.1,2.5,1.6,3.8,1.6c1.4,0,2.8-0.5,3.8-1.6c10.2-10.2,15.9-23.9,15.9-38.4s-5.6-28.1-15.9-38.4
			C96.2,30.5,92.8,30.5,90.6,32.6z"/>
	</g>
	<g>
	</g>
	<g>
	</g>
	<g>
	</g>
	<g>
	</g>
	<g>
	</g>
	<g>
	</g>
	<g>
	</g>
	<g>
	</g>
	<g>
	</g>
	<g>
	</g>
	<g>
	</g>
	<g>
	</g>
	<g>
	</g>
	<g>
	</g>
	<g>
	</g>
</g>
</svg>
