<?xml version="1.0" encoding="utf-8"?>
<!-- Generator: Adobe Illustrator 22.0.1, SVG Export Plug-In . SVG Version: 6.00 Build 0)  -->
<svg version="1.1" id="Layer_1" xmlns="http://www.w3.org/2000/svg" xmlns:xlink="http://www.w3.org/1999/xlink" x="0px" y="0px"
	 viewBox="0 0 140 140" style="enable-background:new 0 0 140 140;" xml:space="preserve">
<style type="text/css">
	.st0{fill:#52A6A6;}
	.st1{fill:#FFFFFF;stroke:#FFFFFF;stroke-miterlimit:10;}
</style>
<circle class="st0" cx="70" cy="70" r="70"/>
<g>
</g>
<g>
</g>
<g>
</g>
<g>
</g>
<g>
</g>
<g>
</g>
<g>
</g>
<g>
</g>
<g>
</g>
<g>
</g>
<g>
</g>
<g>
</g>
<g>
</g>
<g>
</g>
<g>
</g>
<g>
	<g>
		<g>
			<g>
				<path class="st1" d="M118.2,32.5H21.8c-1,0-1.8,0.8-1.8,1.8v12.5v35.7v23.2c0,1,0.8,1.8,1.8,1.8h96.4c1,0,1.8-0.8,1.8-1.8V82.5
					V46.8V34.3C120,33.3,119.2,32.5,118.2,32.5z M23.6,48.6h16.1v32.1H23.6V48.6z M116.4,80.7h-5.4V48.6h5.4V80.7z M116.4,45h-7.1
					c-1,0-1.8,0.8-1.8,1.8v35.7c0,1,0.8,1.8,1.8,1.8h7.1v19.6H23.6v0V84.3h17.9c1,0,1.8-0.8,1.8-1.8V46.8c0-1-0.8-1.8-1.8-1.8H23.6
					v-8.9h92.9V45z"/>
				<circle class="st1" cx="71.8" cy="95" r="3.6"/>
				<path class="st1" d="M50.4,84.3h50c1,0,1.8-0.8,1.8-1.8V46.8c0-1-0.8-1.8-1.8-1.8h-50c-1,0-1.8,0.8-1.8,1.8v35.7
					C48.6,83.5,49.4,84.3,50.4,84.3z M52.1,48.6h46.4v32.1H52.1V48.6z"/>
				<rect x="50.4" y="93.2" class="st1" width="5.4" height="3.6"/>
				<rect x="59.3" y="93.2" class="st1" width="5.4" height="3.6"/>
				<rect x="78.9" y="93.2" class="st1" width="5.4" height="3.6"/>
				<rect x="87.9" y="93.2" class="st1" width="5.4" height="3.6"/>
			</g>
		</g>
	</g>
	<g>
	</g>
	<g>
	</g>
	<g>
	</g>
	<g>
	</g>
	<g>
	</g>
	<g>
	</g>
	<g>
	</g>
	<g>
	</g>
	<g>
	</g>
	<g>
	</g>
	<g>
	</g>
	<g>
	</g>
	<g>
	</g>
	<g>
	</g>
	<g>
	</g>
</g>
</svg>
