<?xml version="1.0" encoding="utf-8"?>
<!-- Generator: Adobe Illustrator 22.0.1, SVG Export Plug-In . SVG Version: 6.00 Build 0)  -->
<svg version="1.1" id="Layer_1" xmlns="http://www.w3.org/2000/svg" xmlns:xlink="http://www.w3.org/1999/xlink" x="0px" y="0px"
	 viewBox="0 0 140 140" style="enable-background:new 0 0 140 140;" xml:space="preserve">
<style type="text/css">
	.st0{fill:#52A6A6;}
	.st1{fill:#FFFFFF;}
</style>
<circle class="st0" cx="70" cy="70" r="70"/>
<g>
</g>
<g>
</g>
<g>
</g>
<g>
</g>
<g>
</g>
<g>
</g>
<g>
</g>
<g>
</g>
<g>
</g>
<g>
</g>
<g>
</g>
<g>
</g>
<g>
</g>
<g>
</g>
<g>
</g>
<g>
	<g>
		<path class="st1" d="M102.8,66.2l-15,15c-8.3,8.3-21.7,8.3-30,0c-1.3-1.3-2.3-2.8-3.2-4.3l7-7c0.3-0.3,0.7-0.5,1.1-0.8
			c0.5,1.6,1.3,3.2,2.6,4.5c4.1,4.1,10.9,4.1,15,0l15-15c4.1-4.1,4.1-10.9,0-15c-4.1-4.1-10.9-4.1-15,0l-5.3,5.3
			c-4.3-1.7-9-2.1-13.5-1.5l11.4-11.4c8.3-8.3,21.7-8.3,30,0C111.1,44.5,111.1,58,102.8,66.2z M63.1,90.9l-5.3,5.3
			c-4.1,4.1-10.9,4.1-15,0c-4.1-4.1-4.1-10.9,0-15l15-15c4.1-4.1,10.9-4.1,15,0c1.3,1.3,2.1,2.9,2.6,4.5c0.4-0.2,0.8-0.4,1.1-0.7
			l7-7c-0.9-1.5-1.9-3-3.2-4.3c-8.3-8.3-21.7-8.3-30,0l-15,15c-8.3,8.3-8.3,21.7,0,30c8.3,8.3,21.7,8.3,30,0l11.4-11.4
			C72.1,93.1,67.4,92.6,63.1,90.9z"/>
	</g>
	<g>
	</g>
	<g>
	</g>
	<g>
	</g>
	<g>
	</g>
	<g>
	</g>
	<g>
	</g>
	<g>
	</g>
	<g>
	</g>
	<g>
	</g>
	<g>
	</g>
	<g>
	</g>
	<g>
	</g>
	<g>
	</g>
	<g>
	</g>
	<g>
	</g>
</g>
</svg>
